<?xml version="1.0" encoding="UTF-8"?>
<svg id="Layer_1" data-name="Layer 1" xmlns="http://www.w3.org/2000/svg" viewBox="0 0 529.75 260.95">
  <defs>
    <style>
      .cls-1 {
        fill: #095230;
      }

      .cls-2 {
        fill: #f5f5ca;
        stroke: #167c51;
        stroke-miterlimit: 10;
        stroke-width: 12px;
      }

      .cls-3 {
        fill: #167c51;
      }
    </style>
  </defs>
  <path class="cls-2" d="M492.99,122.81h-98.58C376.28,55.64,314.94,6.22,242.04,6.22S107.8,55.64,89.67,122.81h-52.91c-16.99,0-30.76,13.77-30.76,30.76v70.63c0,16.99,13.77,30.76,30.76,30.76h456.24c16.99,0,30.76-13.77,30.76-30.76v-70.63c0-16.99-13.77-30.76-30.76-30.76Z"/>
  <g>
    <path class="cls-1" d="M42.54,225.54c-5.69-3.94-8.53-9.53-8.53-16.77,0-.72.08-1.79.24-3.22h21.24c-.24,3.02.48,5.41,2.15,7.16,1.67,1.75,4.22,2.63,7.64,2.63,3.1,0,5.55-.68,7.34-2.03,1.79-1.35,2.69-3.26,2.69-5.73s-1.13-4.61-3.4-6.21c-2.27-1.59-5.79-3.38-10.56-5.37-4.62-1.91-8.38-3.72-11.28-5.43-2.91-1.71-5.43-4.04-7.58-6.98-2.15-2.94-3.22-6.64-3.22-11.1-.08-5.49,1.27-10.26,4.06-14.32,2.78-4.06,6.64-7.16,11.58-9.31,4.93-2.15,10.58-3.22,16.95-3.22,5.73,0,10.82.89,15.28,2.68,4.46,1.79,7.92,4.38,10.38,7.76,2.46,3.38,3.7,7.38,3.7,11.99,0,1.19-.04,2.07-.12,2.63h-21.72c.08-.32.12-.79.12-1.43,0-2.23-.78-4.04-2.33-5.43-1.55-1.39-3.68-2.09-6.38-2.09-2.86,0-5.19.7-6.98,2.09-1.79,1.39-2.69,3.28-2.69,5.67s1.11,4.4,3.34,6.03c2.23,1.63,5.69,3.52,10.38,5.67,4.69,2.15,8.53,4.14,11.52,5.97,2.98,1.83,5.55,4.28,7.7,7.34,2.15,3.06,3.22,6.82,3.22,11.28,0,4.93-1.31,9.35-3.94,13.25-2.63,3.9-6.41,6.94-11.34,9.13-4.93,2.19-10.7,3.28-17.3,3.28-9.07,0-16.45-1.97-22.14-5.91Z"/>
    <path class="cls-1" d="M140.81,146.83l-14.8,83.78h-20.41l14.8-83.78h20.41Z"/>
    <path class="cls-1" d="M250.49,146.83l-14.8,83.78h-20.41l8.95-50.24-27.69,50.24h-16.47l-10.02-50.48-8.83,50.48h-20.41l14.8-83.78h24.11l13.37,58,33.42-58h23.99Z"/>
    <path class="cls-1" d="M360.04,146.83l-14.8,83.78h-20.41l8.95-50.24-27.69,50.24h-16.47l-10.02-50.48-8.83,50.48h-20.41l14.8-83.78h24.11l13.37,58,33.42-58h23.99Z"/>
    <path class="cls-1" d="M392.27,162.94l-2.98,17.42h27.33l-2.75,15.4h-27.33l-3.34,18.74h30.91l-2.86,16.11h-51.32l14.8-83.78h51.32l-2.86,16.11h-30.91Z"/>
    <path class="cls-1" d="M493.35,152.74c4.54,3.94,6.8,9.05,6.8,15.33,0,1.83-.16,3.54-.48,5.13-.96,5.57-3.38,10.54-7.28,14.92-3.9,4.38-9.11,7.48-15.63,9.31l13.49,33.18h-23.03l-11.81-31.62h-4.89l-5.61,31.62h-20.41l14.8-83.78h34.25c8.67,0,15.28,1.97,19.81,5.91ZM479.02,171.53c0-2.54-.82-4.51-2.45-5.91-1.63-1.39-4.04-2.09-7.22-2.09h-12.65l-3.7,21h12.65c3.74,0,6.7-.91,8.89-2.75,2.19-1.83,3.6-4.42,4.24-7.76.16-1.27.24-2.11.24-2.51Z"/>
  </g>
  <g>
    <path class="cls-3" d="M37.76,225.54c-5.69-3.94-8.53-9.53-8.53-16.77,0-.72.08-1.79.24-3.22h21.24c-.24,3.02.48,5.41,2.15,7.16,1.67,1.75,4.22,2.63,7.64,2.63,3.1,0,5.55-.68,7.34-2.03,1.79-1.35,2.69-3.26,2.69-5.73s-1.13-4.61-3.4-6.21c-2.27-1.59-5.79-3.38-10.56-5.37-4.62-1.91-8.38-3.72-11.28-5.43-2.91-1.71-5.43-4.04-7.58-6.98-2.15-2.94-3.22-6.64-3.22-11.1-.08-5.49,1.27-10.26,4.06-14.32,2.78-4.06,6.64-7.16,11.58-9.31,4.93-2.15,10.58-3.22,16.95-3.22,5.73,0,10.82.89,15.28,2.68,4.46,1.79,7.92,4.38,10.38,7.76,2.46,3.38,3.7,7.38,3.7,11.99,0,1.19-.04,2.07-.12,2.63h-21.72c.08-.32.12-.79.12-1.43,0-2.23-.78-4.04-2.33-5.43-1.55-1.39-3.68-2.09-6.38-2.09-2.87,0-5.19.7-6.98,2.09-1.79,1.39-2.68,3.28-2.68,5.67s1.11,4.4,3.34,6.03c2.23,1.63,5.69,3.52,10.38,5.67,4.69,2.15,8.53,4.14,11.52,5.97,2.98,1.83,5.55,4.28,7.7,7.34,2.15,3.06,3.22,6.82,3.22,11.28,0,4.93-1.31,9.35-3.94,13.25-2.62,3.9-6.4,6.94-11.34,9.13-4.93,2.19-10.7,3.28-17.3,3.28-9.07,0-16.45-1.97-22.14-5.91Z"/>
    <path class="cls-3" d="M136.04,146.83l-14.8,83.78h-20.41l14.8-83.78h20.41Z"/>
    <path class="cls-3" d="M245.71,146.83l-14.8,83.78h-20.41l8.95-50.24-27.69,50.24h-16.47l-10.02-50.48-8.83,50.48h-20.41l14.8-83.78h24.11l13.37,58,33.42-58h23.99Z"/>
    <path class="cls-3" d="M355.27,146.83l-14.8,83.78h-20.41l8.95-50.24-27.69,50.24h-16.47l-10.03-50.48-8.83,50.48h-20.41l14.8-83.78h24.11l13.37,58,33.42-58h23.99Z"/>
    <path class="cls-3" d="M387.49,162.94l-2.98,17.42h27.33l-2.74,15.4h-27.33l-3.34,18.74h30.91l-2.86,16.11h-51.32l14.8-83.78h51.32l-2.86,16.11h-30.91Z"/>
    <path class="cls-3" d="M488.57,152.74c4.53,3.94,6.8,9.05,6.8,15.33,0,1.83-.16,3.54-.48,5.13-.96,5.57-3.38,10.54-7.28,14.92-3.9,4.38-9.11,7.48-15.63,9.31l13.49,33.18h-23.03l-11.81-31.62h-4.89l-5.61,31.62h-20.41l14.8-83.78h34.25c8.67,0,15.28,1.97,19.81,5.91ZM474.25,171.53c0-2.54-.82-4.51-2.45-5.91-1.63-1.39-4.04-2.09-7.22-2.09h-12.65l-3.7,21h12.65c3.74,0,6.7-.91,8.89-2.75,2.19-1.83,3.6-4.42,4.24-7.76.16-1.27.24-2.11.24-2.51Z"/>
  </g>
  <g>
    <path class="cls-1" d="M192.47,86.55c-.83.07-1.34.3-2.05-.26-.57,2.16-1.53,4.23-1.94,6.43-.18.95-.39,4.72-.61,5.01-.18.24-.8.13-1.2.39-.14.09-1.06,1.25-1.15,1.43-.53,1.08-.39,3.44-.62,3.76-.24.33-1.56.19-1.69,1.01,9.45-1.26,18.62-5.31,26.24-10.95-.87-.35-3.2,2.33-3.86,1.67-.04-1.83,1.78-3.63,3.6-3.61.06-.56-.47-.87-.51-1.43-.03-.55.49-1.38.2-1.87-.06-.1-1.75-1.15-2-1.22-.9-.24-1.89-.13-2.8-.09l-1.45,4.09.9-4.12-2.03.02c-.25.22-.35,3.5-1.31,3.84l.77-3.86-1.77.04-.94,3.32.39-3.35-1.82.11-.5,1.69v-1.8h-1.81l-.13,1.55-.13-1.55-1.52.03-.54,1.52.25-1.8h0ZM270.44,109.22c-.52-4.76-2.16-9.23-4.07-13.57-.5-1.13-2.14-5.07-2.76-5.74-.16-.17-3.75-1.97-4.25-2.18-2.31-.97-5.2-1.28-7.21-3.35-2.91-.5-5.21-2.52-7.96-3.5l4.51,12.35c.12,1.01,1.62,2.4,1.82,3.09.24.82-.29,1.14.12,2.17,1.5,3.68,6.49,9.47,9.49,12.14.39.35,1.54.92,1.68,1.16.51.89-.52,1.37,1.6,1.74.71.12,1.47-.05,2.14.17.68.22.83,1.05,1.16,1.13,1.03.25,3.11-1,3.58-.98.42.02.73.63,1.23.48.35-.75,3.03-1.93,3.03-2.42,0-.63-3.07-3.61-4.13-2.7h0ZM253.45,72.12l-12.09-2.06c-.13.68.15.45.51.63.58.29,2.4,1.36,2.71,1.42,1.16.21,3.8-.2,5.41-.01.49.06.24.49.74.56.53.07,1.79.05,2.34-.02.35-.04.81-.19.38-.51h0ZM211.51,79.07c.05-.24-.02-.33-.12-.52-.25-.45-2.29-2.32-2.83-2.83-3.08-2.89-6.31-5.37-10.27-6.93-.66.11-2.64,4.61-3.04,5.47-1.13,2.47-2.41,5.46-3.31,8.02-.32.92-.78,1.99-.76,2.97l.51-1.03.13,1.03.9-.77.24.92,1.31.11c.13-.72-.71-1.68.26-2.06l.27,2.3,1.53.02-.13-3.09.81,3.1h1.63s.13-1.82.13-1.82l.37,1.69,1.82.11-.13-2.58.68,2.54,2.02.03-.39-2.83.89,2.72c.36.25,2.35.16,2.86,0,.21-.07,1.67-1.39,1.72-1.49.55-.98-.08-1.9,1.35-3.74.41-.53.42-1.27,1.54-1.36h0ZM244.2,63.63l-1.45,3.33.28.52c1.17-.24,2.42-.4,3.6-.51.48-.05,2.72.2,2.69-.39-.71-.46-4.67-3.27-5.13-2.95h0ZM263.49,66.98l-14.41-8.24c1.79,2.81,2.56,5.96,5.75,7.51,2.74,1.34,5.18.76,8.08,1.45l.58-.72h0ZM241.62,61.57l-7.72-4.38.04,1.91.99.67h-1.03c-.28,1.86,2.05,1.68,3.35,1.81l-1.54.51.77.26c-.68-.07-.62.17-.32.71.62,1.1,2.89,1.71,1.86,3.67l1.24-.04,2.36-5.11h0ZM234.16,50.62c.06,1.28-.04,2.58,0,3.86l8.35,4.52c.47-1.27,1.1-1.97,1.94-2.97l-10.17-5.79c-.78-.07-.13.27-.12.38h0ZM283.5,65.88l-8.43,3.92c4.97,1.2,10.61,2.6,15.09,5.11.8.45,3.74,2.1,2.69,3.29-.37.42-1.03.15-1.06.62,1.28.45,6.08,1.69,6.56,2.84l-.26.52-15.3-4.52-20.34-3.6c.43.11.78.86.96.9.74.19,2.13.14,3.16.38,3.06.73,3.34,1.33,5.73,2.51,2.17,1.07,4.43,1.15,6.75,2.77,2.68,1.87,5.53,2.49,8.24,4.39,2.15,1.51,4.4,1.41,6.65,2.6.66.35.85.85,1.13,1,.82.43,2.47.48,3.47,1.09.57.35.58.78.88.99,1.19.81,3.76.63,4.7,2.18-.77.22-1.33,1.66-1.54,1.81-1.08.77-3.89.09-4.99.2-2.15.22-4.24.49-6.46.45-4.28-.07-9.67-.51-13.77-1.69-2.4-.69-4.72-.97-7.01-1.74-.97-.33-1.84-.83-2.78-1.21,2.09,4.35,3.58,9.19,6.84,12.85.5.56,2.13,1.29,1.73,2.28-.12.31-.56.3-.6.5-.27,1.28,2.48,4.47,3.35,5.61,5.81,7.56,12.91,14.24,20.75,19.66.8.55,1.96.88,2.33,1.14.48.33.42,1.92.95,2.53.66.76,4.37,2.35,5.48,2.76,2.4.88,4.94,1.36,7.38,2.09-.06,2.43,3.84,2.81,5.81,3.25,2.13.48,4.92,1.06,7.07,1.17.81.04,2.99-.31,3.31-.23.77.18.68,1.38,1,1.71,1.43,1.44,10.11-.13,12.41-.21,1.58-.05,2.45.51,3.34.54.91.03,4.53-1.21,5.18-.29l.07,1.02c-1.56,1.06-3.9.58-5.43,1.06-.35.11-.42,1.09-1.09,1.03-3.77-.04-7.56-.09-11.33-.24-3.78-.15-6.14-.18-9.84-1.23-2.78-.79-8.08-3.13-10.55-3.38-.66-.07-.88.63-1.93.43-3.34-.64-9.04-5.73-12.36-6.71-.79-.23-1.41-.09-2.05-.26-1.09-.28-11.14-10.42-12.67-12.04-3.93-4.15-7.53-8.6-11.32-12.88-.47.3-.43.98-.82,1.3-.19.15-4.09,2.25-4.33,2.3-1.29.25-2.56-.38-3.6-.28-.61.06-.94.58-1.48.51-.7-.1-2.86-1.53-3.79-1.91-.48-.19-1.05-.04-1.54-.26-.39-.17-3.91-4.57-4.48-5.3-2.35-3.01-4.42-6.23-6.58-9.39-.27-.48-1.12-.23-1.33-.53-.26-.38-.81-4.09-1.07-5.06-1.34-4.86-3.41-9.55-5.47-14.12-3.76.94-1.4,5.34-1.66,8.12-.11,1.19-.81,2.75-1.06,4.35-.38,2.41-1.64,2.32-2.29.16l-1.15.54c-.78-.07-.38-1.02-1.16-.8-.06,1.27-1.49,1.93-2.57,1.41-.29-.14-.48-.6-.77-.74-.29-.13-1.82-.84-1.93-.85-.28-.03-.8.38-1.28.39-1.03.03-3.52-1.13-4.38-1.76-1.51-1.09-2.46-2.89-3.71-4.22-.2-.22-.18-.24-.53-.16-.05.35-.17.74-.39,1.02-3.36,4.16-5.83,6.03-10.44,8.87-7.81,4.81-16.63,8.7-25.85,9.41-4.22,6.27-8.59,12.42-13.5,18.17-.72.85-3.68,4.58-4.19,4.95-.72.51-1.47-.22-2.51.71-1.39,1.25-4.83,6.9-6.17,7.47-.54.24-1.18.13-1.89.42-3.01,1.25-7.19,5.13-10.12,5.84-2.53.61-10.47,3.08-12.34,3.08-.62,0-.85-.53-1.23-.59-1.27-.18-3.14.95-4.25-.25-.27-1.11,3.57-1.05,4.18-1.22.38-.1.66-.55,1.15-.65,1.8-.36,9.5-.87,10.22-2.13.21-.36.24-1.37.44-1.5.17-.11,3.14-.62,3.88-.87,1.13-.38,7.18-3.06,7.53-3.8.15-.32-.21-.64.09-1.16.62-1.09,5.06-3.82,6.45-5.67.78-1.03.72-2.02,1.18-2.68.47-.67,3.13-2.45,3.98-3.23.89-.82,1.69-1.75,2.57-2.58.13-.61-.51-.42-.84-.33-1.32.36-3.72,1.94-4.97,1.99-1.08.04-5.11-.11-6.11-.3-.67-.13-.64-.57-.77-.63-.54-.25-1.29-.09-1.72-.73.32-.47.66-.39,1.14-.39.43,0,1.61.03,2,.07.99.11,2.84.83,3.67.72.82-.1.4-.9.97-1.13,1.21.18,4.79-.23,5.7-.92.29-.22.05-.79.41-1.19.42-.47,2.14-.87,2.84-1.79.49-.64.39-1.33.75-1.82.3-.41,1.81-1.31,2.33-1.79,2.55-2.31,6.67-6.01,7.6-9.4.36-1.29-.65-1.47-.65-1.68,0-.13,1.52-1.46,1.79-1.81.45-.58.99-1.37,1.33-2.01,1.8-3.35,3.03-7.69,4.33-11.24l-2.05-.45-3.35-1.61c1.12,0,2.06.61,3.08.91.47.14.87.33.97.35.5.14,1.1.09,1.61.28.15-.73-.21-.41-.55-.6-.92-.5-2.11-.89-2.79-1.72l3.83,1.26c2.55-5.69,4.5-11.81,7.61-17.24,2.26-3.95,3.51-6.67,8.09-3.19l10.57,10.15c.32-.84.66-1.88,1.08-2.66.5-.93,3.84-6.04,4.4-6.54.28-.25.81-.2,1.35-.84.83-.97.89-2.83,2.69-2.58l-.77.9c1.04.22,1.91-1,2.82-1.42l-.77-.51c1.42-1.88-1.1-6.33.5-8.13.77-.87,2.66-.63,2.98-.86.89-.64.45-2.61,1.21-3.31.72-.66,3.42-1.08,4.39-.56,5.62,3.07,11.49,5.63,17.16,8.6,5,2.62,10.53,6.47,15.52,8.68.43.19.97.51,1.45.34.96-.34,4.09-2.85,5.13-3.63,1.35-1.02,2.69-2.54,4.05-3.42.46-.3,1.05-.18,1.51-.55.28-.23,3.8-5.18,4.21-5.83,3.79-5.98,4.06-15.03,1.92-21.67-.39-1.2-2.8-5.65-2.27-6.5l.83-.47c.66-.06,1.32,1.62,1.59,2.19,2.83,5.88,2.65,9.89,2.6,16.18,0,1.13.33,4.61.16,5.29-.16.67-2.85,5.67-3.39,6.67-.99,1.83-3.46,3.61-4.59,5.45-.36.58-.33,1.23-.64,1.67-.44.61-5.05,2.89-6.17,3.61-.45.29-3.1,2.08-3.1,2.3.5.45,1.09,1.2,1.79.9l-.13,1.03,9.47-5.73c5.43-.32,11.35-7.79,15.68-9.53.65-.26,1.25-.08,1.88-.44.69-.39,7.43-7.36,8.49-8.51.95-1.03,6.87-8.71,7.34-9.66,1.08-2.18,2.22-6.66,2.94-9.16,1.35-4.64,2.6-8.71,1.56-13.67-.54-2.6-3.09-5.92-3.71-8.68.36-1.6,1.73-1.83,2.75-.4.72,1.01,3.55,7.55,3.66,8.7.88,9.23-3.25,16.92-5.35,25.56-2.67,3.29-5.51,6.27-7.78,9.74-1.55,2.37-6.9,5.27-8.64,7.84-.46.67-.37,1.44-.9,1.94-1.42,1.34-9.14,4.56-11.65,6.11-1.34.83-3.7,1.91-3.84,3.5h0Z"/>
    <path class="cls-3" d="M190.63,86.55c-.83.07-1.34.3-2.05-.26-.57,2.16-1.53,4.23-1.94,6.43-.18.95-.39,4.72-.61,5.01-.18.24-.8.13-1.2.39-.14.09-1.06,1.25-1.15,1.43-.53,1.08-.39,3.44-.62,3.76-.24.33-1.56.19-1.69,1.01,9.45-1.26,18.62-5.31,26.24-10.95-.87-.35-3.2,2.33-3.86,1.67-.04-1.83,1.78-3.63,3.6-3.61.06-.56-.47-.87-.51-1.43-.03-.55.49-1.38.2-1.87-.06-.1-1.75-1.15-2-1.22-.9-.24-1.89-.13-2.8-.09l-1.45,4.09.9-4.12-2.03.02c-.25.22-.35,3.5-1.31,3.84l.77-3.86-1.77.04-.94,3.32.39-3.35-1.82.11-.5,1.69v-1.8h-1.81l-.13,1.55-.13-1.55-1.52.03-.54,1.52.25-1.8h0ZM268.59,109.22c-.52-4.76-2.16-9.23-4.07-13.57-.5-1.13-2.14-5.07-2.76-5.74-.16-.17-3.75-1.97-4.25-2.18-2.31-.97-5.2-1.28-7.21-3.35-2.91-.5-5.21-2.52-7.96-3.5l4.51,12.35c.12,1.01,1.62,2.4,1.82,3.09.24.82-.29,1.14.12,2.17,1.5,3.68,6.49,9.47,9.49,12.14.39.35,1.54.92,1.68,1.16.51.89-.52,1.37,1.6,1.74.71.12,1.47-.05,2.14.17.68.22.83,1.05,1.16,1.13,1.03.25,3.11-1,3.58-.98.42.02.73.63,1.23.48.35-.75,3.03-1.93,3.03-2.42,0-.63-3.07-3.61-4.13-2.7h0ZM251.61,72.12l-12.09-2.06c-.13.68.15.45.51.63.58.29,2.4,1.36,2.71,1.42,1.16.21,3.8-.2,5.41-.01.49.06.24.49.74.56.53.07,1.79.05,2.34-.02.35-.04.81-.19.38-.51h0ZM209.67,79.07c.05-.24-.02-.33-.12-.52-.25-.45-2.29-2.32-2.83-2.83-3.08-2.89-6.31-5.37-10.27-6.93-.66.11-2.64,4.61-3.04,5.47-1.13,2.47-2.41,5.46-3.31,8.02-.32.92-.78,1.99-.76,2.97l.51-1.03.13,1.03.9-.77.24.92,1.31.11c.13-.72-.71-1.68.26-2.06l.27,2.3,1.53.02-.13-3.09.81,3.1h1.63s.13-1.82.13-1.82l.37,1.69,1.82.11-.13-2.58.68,2.54,2.02.03-.39-2.83.89,2.72c.36.25,2.35.16,2.86,0,.21-.07,1.67-1.39,1.72-1.49.55-.98-.08-1.9,1.35-3.74.41-.53.42-1.27,1.54-1.36h0ZM242.36,63.63l-1.45,3.33.28.52c1.17-.24,2.42-.4,3.6-.51.48-.05,2.72.2,2.69-.39-.71-.46-4.67-3.27-5.13-2.95h0ZM261.65,66.98l-14.41-8.24c1.79,2.81,2.56,5.96,5.75,7.51,2.74,1.34,5.18.76,8.08,1.45l.58-.72h0ZM239.78,61.57l-7.72-4.38.04,1.91.99.67h-1.03c-.28,1.86,2.05,1.68,3.35,1.81l-1.54.51.77.26c-.68-.07-.62.17-.32.71.62,1.1,2.89,1.71,1.86,3.67l1.24-.04,2.36-5.11h0ZM232.31,50.62c.06,1.28-.04,2.58,0,3.86l8.35,4.52c.47-1.27,1.1-1.97,1.94-2.97l-10.17-5.79c-.78-.07-.13.27-.12.38h0ZM281.66,65.88l-8.43,3.92c4.97,1.2,10.61,2.6,15.09,5.11.8.45,3.74,2.1,2.69,3.29-.37.42-1.03.15-1.06.62,1.28.45,6.08,1.69,6.56,2.84l-.26.52-15.3-4.52-20.34-3.6c.43.11.78.86.96.9.74.19,2.13.14,3.16.38,3.06.73,3.34,1.33,5.73,2.51,2.17,1.07,4.43,1.15,6.75,2.77,2.68,1.87,5.53,2.49,8.24,4.39,2.15,1.51,4.4,1.41,6.65,2.6.66.35.85.85,1.13,1,.82.43,2.47.48,3.47,1.09.57.35.58.78.88.99,1.19.81,3.76.63,4.7,2.18-.77.22-1.33,1.66-1.54,1.81-1.08.77-3.89.09-4.99.2-2.15.22-4.24.49-6.46.45-4.28-.07-9.67-.51-13.77-1.69-2.4-.69-4.72-.97-7.01-1.74-.97-.33-1.84-.83-2.78-1.21,2.09,4.35,3.58,9.19,6.84,12.85.5.56,2.13,1.29,1.73,2.28-.12.31-.56.3-.6.5-.27,1.28,2.48,4.47,3.35,5.61,5.81,7.56,12.91,14.24,20.75,19.66.8.55,1.96.88,2.33,1.14.48.33.42,1.92.95,2.53.66.76,4.37,2.35,5.48,2.76,2.4.88,4.94,1.36,7.38,2.09-.06,2.43,3.84,2.81,5.81,3.25,2.13.48,4.92,1.06,7.07,1.17.81.04,2.99-.31,3.31-.23.77.18.68,1.38,1,1.71,1.43,1.44,10.11-.13,12.41-.21,1.58-.05,2.45.51,3.34.54.91.03,4.53-1.21,5.18-.29l.07,1.02c-1.56,1.06-3.9.58-5.43,1.06-.35.11-.42,1.09-1.09,1.03-3.77-.04-7.56-.09-11.33-.24-3.78-.15-6.14-.18-9.84-1.23-2.78-.79-8.08-3.13-10.55-3.38-.66-.07-.88.63-1.93.43-3.34-.64-9.04-5.73-12.36-6.71-.79-.23-1.41-.09-2.05-.26-1.09-.28-11.14-10.42-12.67-12.04-3.93-4.15-7.53-8.6-11.32-12.88-.47.3-.43.98-.82,1.3-.19.15-4.09,2.25-4.33,2.3-1.29.25-2.56-.38-3.6-.28-.61.06-.94.58-1.48.51-.7-.1-2.86-1.53-3.79-1.91-.48-.19-1.05-.04-1.54-.26-.39-.17-3.91-4.57-4.48-5.3-2.35-3.01-4.42-6.23-6.58-9.39-.27-.48-1.12-.23-1.33-.53-.26-.38-.81-4.09-1.07-5.06-1.34-4.86-3.41-9.55-5.47-14.12-3.76.94-1.4,5.34-1.66,8.12-.11,1.19-.81,2.75-1.06,4.35-.38,2.41-1.64,2.32-2.29.16l-1.15.54c-.78-.07-.38-1.02-1.16-.8-.06,1.27-1.49,1.93-2.57,1.41-.29-.14-.48-.6-.77-.74-.29-.13-1.82-.84-1.93-.85-.28-.03-.8.38-1.28.39-1.03.03-3.52-1.13-4.38-1.76-1.51-1.09-2.46-2.89-3.71-4.22-.2-.22-.18-.24-.53-.16-.05.35-.17.74-.39,1.02-3.36,4.16-5.83,6.03-10.44,8.87-7.81,4.81-16.63,8.7-25.85,9.41-4.22,6.27-8.59,12.42-13.5,18.17-.72.85-3.68,4.58-4.19,4.95-.72.51-1.47-.22-2.51.71-1.39,1.25-4.83,6.9-6.17,7.47-.54.24-1.18.13-1.89.42-3.01,1.25-7.19,5.13-10.12,5.84-2.53.61-10.47,3.08-12.34,3.08-.62,0-.85-.53-1.23-.59-1.27-.18-3.14.95-4.25-.25-.27-1.11,3.57-1.05,4.18-1.22.38-.1.66-.55,1.15-.65,1.8-.36,9.5-.87,10.22-2.13.21-.36.24-1.37.44-1.5.17-.11,3.14-.62,3.88-.87,1.13-.38,7.18-3.06,7.53-3.8.15-.32-.21-.64.09-1.16.62-1.09,5.06-3.82,6.45-5.67.78-1.03.72-2.02,1.18-2.68.47-.67,3.13-2.45,3.98-3.23.89-.82,1.69-1.75,2.57-2.58.13-.61-.51-.42-.84-.33-1.32.36-3.72,1.94-4.97,1.99-1.08.04-5.11-.11-6.11-.3-.67-.13-.64-.57-.77-.63-.54-.25-1.29-.09-1.72-.73.32-.47.66-.39,1.14-.39.43,0,1.61.03,2,.07.99.11,2.84.83,3.67.72.82-.1.4-.9.97-1.13,1.21.18,4.79-.23,5.7-.92.29-.22.05-.79.41-1.19.42-.47,2.14-.87,2.84-1.79.49-.64.39-1.33.75-1.82.3-.41,1.81-1.31,2.33-1.79,2.55-2.31,6.67-6.01,7.6-9.4.36-1.29-.65-1.47-.65-1.68,0-.13,1.52-1.46,1.79-1.81.45-.58.99-1.37,1.33-2.01,1.8-3.35,3.03-7.69,4.33-11.24l-2.05-.45-3.35-1.61c1.12,0,2.06.61,3.08.91.47.14.87.33.97.35.5.14,1.1.09,1.61.28.15-.73-.21-.41-.55-.6-.92-.5-2.11-.89-2.79-1.72l3.83,1.26c2.55-5.69,4.5-11.81,7.61-17.24,2.26-3.95,3.51-6.67,8.09-3.19l10.57,10.15c.32-.84.66-1.88,1.08-2.66.5-.93,3.84-6.04,4.4-6.54.28-.25.81-.2,1.35-.84.83-.97.89-2.83,2.69-2.58l-.77.9c1.04.22,1.91-1,2.82-1.42l-.77-.51c1.42-1.88-1.1-6.33.5-8.13.77-.87,2.66-.63,2.98-.86.89-.64.45-2.61,1.21-3.31.72-.66,3.42-1.08,4.39-.56,5.62,3.07,11.49,5.63,17.16,8.6,5,2.62,10.53,6.47,15.52,8.68.43.19.97.51,1.45.34.96-.34,4.09-2.85,5.13-3.63,1.35-1.02,2.69-2.54,4.05-3.42.46-.3,1.05-.18,1.51-.55.28-.23,3.8-5.18,4.21-5.83,3.79-5.98,4.06-15.03,1.92-21.67-.39-1.2-2.8-5.65-2.27-6.5l.83-.47c.66-.06,1.32,1.62,1.59,2.19,2.83,5.88,2.65,9.89,2.6,16.18,0,1.13.33,4.61.16,5.29-.16.67-2.85,5.67-3.39,6.67-.99,1.83-3.46,3.61-4.59,5.45-.36.58-.33,1.23-.64,1.67-.44.61-5.05,2.89-6.17,3.61-.45.29-3.1,2.08-3.1,2.3.5.45,1.09,1.2,1.79.9l-.13,1.03,9.47-5.73c5.43-.32,11.35-7.79,15.68-9.53.65-.26,1.25-.08,1.88-.44.69-.39,7.43-7.36,8.49-8.51.95-1.03,6.87-8.71,7.34-9.66,1.08-2.18,2.22-6.66,2.94-9.16,1.35-4.64,2.6-8.71,1.56-13.67-.54-2.6-3.09-5.92-3.71-8.68.36-1.6,1.73-1.83,2.75-.4.72,1.01,3.55,7.55,3.66,8.7.88,9.23-3.25,16.92-5.35,25.56-2.67,3.29-5.51,6.27-7.78,9.74-1.55,2.37-6.9,5.27-8.64,7.84-.46.67-.37,1.44-.9,1.94-1.42,1.34-9.14,4.56-11.65,6.11-1.34.83-3.7,1.91-3.84,3.5h0Z"/>
  </g>
</svg>