<?xml version="1.0" encoding="UTF-8"?>
<svg xmlns="http://www.w3.org/2000/svg" viewBox="0 0 16 16">
  <defs>
    <style>
      .cls-1 {
        fill: #095230;
      }

      .cls-2 {
        fill: #f5f5ca;
        stroke: #0c5331;
        stroke-miterlimit: 10;
      }

      .cls-3 {
        fill: #167c51;
      }
    </style>
  </defs>
  <g id="Layer_6" data-name="Layer 6">
    <rect class="cls-2" x=".5" y=".5" width="15.01" height="15.01" rx="2.81" ry="2.81"/>
  </g>
  <g id="Layer_1" data-name="Layer 1">
    <g>
      <path class="cls-1" d="M5.06,12.8c-.74-.51-1.11-1.23-1.11-2.17,0-.09.01-.23.03-.42h2.75c-.03.39.06.7.28.93.22.23.55.34.99.34.4,0,.72-.09.95-.26.23-.18.35-.42.35-.74s-.15-.6-.44-.8c-.29-.21-.75-.44-1.37-.7-.6-.25-1.09-.48-1.46-.7-.38-.22-.7-.52-.98-.9-.28-.38-.42-.86-.42-1.44-.01-.71.16-1.33.53-1.86.36-.53.86-.93,1.5-1.21.64-.28,1.37-.42,2.2-.42.74,0,1.4.12,1.98.35.58.23,1.03.57,1.35,1.01.32.44.48.96.48,1.55,0,.15,0,.27-.02.34h-2.82s.02-.1.02-.19c0-.29-.1-.52-.3-.7-.2-.18-.48-.27-.83-.27-.37,0-.67.09-.9.27-.23.18-.35.43-.35.73s.14.57.43.78c.29.21.74.46,1.35.73.61.28,1.11.54,1.49.77.39.24.72.55,1,.95.28.4.42.88.42,1.46,0,.64-.17,1.21-.51,1.72-.34.51-.83.9-1.47,1.18-.64.28-1.39.43-2.24.43-1.18,0-2.13-.26-2.87-.77Z"/>
      <path class="cls-3" d="M4.44,12.8c-.74-.51-1.11-1.23-1.11-2.17,0-.09.01-.23.03-.42h2.75c-.03.39.06.7.28.93.22.23.55.34.99.34.4,0,.72-.09.95-.26.23-.18.35-.42.35-.74s-.15-.6-.44-.8c-.29-.21-.75-.44-1.37-.7-.6-.25-1.09-.48-1.46-.7-.38-.22-.7-.52-.98-.9-.28-.38-.42-.86-.42-1.44-.01-.71.16-1.33.53-1.86.36-.53.86-.93,1.5-1.21.64-.28,1.37-.42,2.2-.42.74,0,1.4.12,1.98.35.58.23,1.03.57,1.35,1.01.32.44.48.96.48,1.55,0,.15,0,.27-.02.34h-2.82s.02-.1.02-.19c0-.29-.1-.52-.3-.7-.2-.18-.48-.27-.83-.27-.37,0-.67.09-.91.27-.23.18-.35.43-.35.73s.14.57.43.78c.29.21.74.46,1.35.73.61.28,1.11.54,1.49.77.39.24.72.55,1,.95.28.4.42.88.42,1.46,0,.64-.17,1.21-.51,1.72-.34.51-.83.9-1.47,1.18-.64.28-1.39.43-2.24.43-1.18,0-2.13-.26-2.87-.77Z"/>
    </g>
  </g>
</svg>